<svg width="40" height="40" viewBox="0 0 40 40" fill="none" xmlns="http://www.w3.org/2000/svg">
<g filter="url(#filter0_d_4_267)">
<rect x="2" y="1" width="36" height="36" rx="8" fill="white"/>
<rect x="2.5" y="1.5" width="35" height="35" rx="7.5" stroke="white"/>
<path d="M15 19H21.6667C22.5507 19 23.3986 18.6488 24.0237 18.0237C24.6488 17.3986 25 16.5507 25 15.6667C25 14.7826 24.6488 13.9348 24.0237 13.3096C23.3986 12.6845 22.5507 12.3333 21.6667 12.3333H15V19ZM15 19H22.5C23.3841 19 24.2319 19.3512 24.857 19.9763C25.4821 20.6014 25.8333 21.4493 25.8333 22.3333C25.8333 23.2174 25.4821 24.0652 24.857 24.6903C24.2319 25.3155 23.3841 25.6667 22.5 25.6667H15V19Z" stroke="black" stroke-width="1.67" stroke-linecap="round" stroke-linejoin="round"/>
</g>
<defs>
<filter id="filter0_d_4_267" x="0" y="0" width="40" height="40" filterUnits="userSpaceOnUse" color-interpolation-filters="sRGB">
<feFlood flood-opacity="0" result="BackgroundImageFix"/>
<feColorMatrix in="SourceAlpha" type="matrix" values="0 0 0 0 0 0 0 0 0 0 0 0 0 0 0 0 0 0 127 0" result="hardAlpha"/>
<feOffset dy="1"/>
<feGaussianBlur stdDeviation="1"/>
<feColorMatrix type="matrix" values="0 0 0 0 0.0627451 0 0 0 0 0.0941176 0 0 0 0 0.156863 0 0 0 0.05 0"/>
<feBlend mode="normal" in2="BackgroundImageFix" result="effect1_dropShadow_4_267"/>
<feBlend mode="normal" in="SourceGraphic" in2="effect1_dropShadow_4_267" result="shape"/>
</filter>
</defs>
</svg>
